<svg width="103" height="19" viewBox="0 0 103 19" fill="none" xmlns="http://www.w3.org/2000/svg">
<path d="M0.769649 18V1.296H6.98565C8.20165 1.296 9.32165 1.6 10.3456 2.208C11.3856 2.816 12.2096 3.64 12.8176 4.68C13.4256 5.704 13.7296 6.824 13.7296 8.04V11.256C13.7296 12.472 13.4256 13.6 12.8176 14.64C12.2096 15.664 11.3856 16.48 10.3456 17.088C9.32165 17.696 8.20165 18 6.98565 18H0.769649ZM18.7753 1.296H30.5353V2.184H19.6633V8.952H29.1193V9.84H19.6633V17.112H30.5353V18H18.7753V1.296ZM35.8929 1.296L42.2769 16.824L48.6609 1.296H49.5969L42.7329 18H41.7969L34.9329 1.296H35.8929ZM66.9545 11.688C66.9705 13.784 66.3705 15.424 65.1545 16.608C63.9385 17.776 62.2665 18.36 60.1385 18.36C58.8745 18.36 57.7065 18.072 56.6345 17.496C55.5785 16.92 54.7385 16.104 54.1145 15.048C53.4905 13.992 53.1785 12.776 53.1785 11.4V7.896C53.1785 6.536 53.4745 5.328 54.0665 4.272C54.6745 3.216 55.4985 2.4 56.5385 1.824C57.5945 1.232 58.7705 0.935999 60.0665 0.935999C62.1945 0.935999 63.8585 1.52 65.0585 2.688C66.2745 3.84 66.8905 5.472 66.9065 7.584H62.5865C62.5705 6.768 62.3465 6.136 61.9145 5.688C61.4985 5.24 60.8825 5.016 60.0665 5.016C59.3305 5.016 58.7225 5.248 58.2425 5.712C57.7625 6.176 57.5225 6.832 57.5225 7.68V11.592C57.5225 12.44 57.7705 13.104 58.2665 13.584C58.7785 14.048 59.4025 14.28 60.1385 14.28C61.8185 14.28 62.6585 13.416 62.6585 11.688H66.9545ZM77.8321 0.935999C79.0801 0.935999 80.2321 1.248 81.2881 1.872C82.3441 2.48 83.1761 3.312 83.7841 4.368C84.4081 5.424 84.7201 6.576 84.7201 7.824V11.472C84.7201 12.72 84.4081 13.872 83.7841 14.928C83.1761 15.984 82.3441 16.824 81.2881 17.448C80.2321 18.056 79.0801 18.36 77.8321 18.36C76.5841 18.36 75.4321 18.056 74.3761 17.448C73.3201 16.824 72.4801 15.984 71.8561 14.928C71.2481 13.872 70.9441 12.72 70.9441 11.472V7.824C70.9441 6.576 71.2481 5.424 71.8561 4.368C72.4801 3.312 73.3201 2.48 74.3761 1.872C75.4321 1.248 76.5841 0.935999 77.8321 0.935999ZM71.8321 11.472C71.8321 12.56 72.0961 13.568 72.6241 14.496C73.1681 15.408 73.8961 16.136 74.8081 16.68C75.7361 17.208 76.7441 17.472 77.8321 17.472C78.9201 17.472 79.9201 17.208 80.8321 16.68C81.7601 16.136 82.4881 15.408 83.0161 14.496C83.5601 13.568 83.8321 12.56 83.8321 11.472V7.824C83.8321 6.736 83.5601 5.736 83.0161 4.824C82.4881 3.896 81.7601 3.168 80.8321 2.64C79.9201 2.096 78.9201 1.824 77.8321 1.824C76.7441 1.824 75.7361 2.096 74.8081 2.64C73.8961 3.168 73.1681 3.896 72.6241 4.824C72.0961 5.736 71.8321 6.736 71.8321 7.824V11.472ZM89.0698 18V1.296H90.0058L101.67 12.624V1.296H102.558V18H101.67V13.872L89.9578 2.448V18H89.0698Z" fill="black"/>
</svg>
