<svg width="440" height="45" viewBox="0 0 440 45" fill="none" xmlns="http://www.w3.org/2000/svg">
<path d="M0.32 44V1.544H16.119C19.2097 1.544 22.0563 2.31666 24.659 3.862C27.3023 5.40733 29.3967 7.50167 30.942 10.145C32.4873 12.7477 33.26 15.5943 33.26 18.685V26.859C33.26 29.9497 32.4873 32.8167 30.942 35.46C29.3967 38.0627 27.3023 40.1367 24.659 41.682C22.0563 43.2273 19.2097 44 16.119 44H0.32ZM46.0843 1.544H75.9743V3.801H48.3413V21.003H72.3753V23.26H48.3413V41.743H75.9743V44H46.0843V1.544ZM89.5916 1.544L105.818 41.011L122.044 1.544H124.423L106.977 44H104.598L87.1516 1.544H89.5916ZM168.54 27.957C168.581 33.2843 167.056 37.4527 163.965 40.462C160.874 43.4307 156.625 44.915 151.216 44.915C148.003 44.915 145.035 44.183 142.31 42.719C139.626 41.255 137.491 39.181 135.905 36.497C134.319 33.813 133.526 30.7223 133.526 27.225V18.319C133.526 14.8623 134.278 11.792 135.783 9.108C137.328 6.424 139.423 4.35 142.066 2.886C144.75 1.38133 147.739 0.628998 151.033 0.628998C156.442 0.628998 160.671 2.11333 163.721 5.082C166.812 8.01 168.377 12.158 168.418 17.526H157.438C157.397 15.452 156.828 13.8457 155.73 12.707C154.673 11.5683 153.107 10.999 151.033 10.999C149.162 10.999 147.617 11.5887 146.397 12.768C145.177 13.9473 144.567 15.6147 144.567 17.77V27.713C144.567 29.8683 145.197 31.556 146.458 32.776C147.759 33.9553 149.345 34.545 151.216 34.545C155.486 34.545 157.621 32.349 157.621 27.957H168.54ZM196.187 0.628998C199.359 0.628998 202.287 1.422 204.971 3.008C207.655 4.55333 209.77 6.668 211.315 9.352C212.901 12.036 213.694 14.964 213.694 18.136V27.408C213.694 30.58 212.901 33.508 211.315 36.192C209.77 38.876 207.655 41.011 204.971 42.597C202.287 44.1423 199.359 44.915 196.187 44.915C193.015 44.915 190.087 44.1423 187.403 42.597C184.719 41.011 182.584 38.876 180.998 36.192C179.453 33.508 178.68 30.58 178.68 27.408V18.136C178.68 14.964 179.453 12.036 180.998 9.352C182.584 6.668 184.719 4.55333 187.403 3.008C190.087 1.422 193.015 0.628998 196.187 0.628998ZM180.937 27.408C180.937 30.1733 181.608 32.7353 182.95 35.094C184.333 37.412 186.183 39.2623 188.501 40.645C190.86 41.987 193.422 42.658 196.187 42.658C198.953 42.658 201.494 41.987 203.812 40.645C206.171 39.2623 208.021 37.412 209.363 35.094C210.746 32.7353 211.437 30.1733 211.437 27.408V18.136C211.437 15.3707 210.746 12.829 209.363 10.511C208.021 8.15233 206.171 6.302 203.812 4.96C201.494 3.57733 198.953 2.886 196.187 2.886C193.422 2.886 190.86 3.57733 188.501 4.96C186.183 6.302 184.333 8.15233 182.95 10.511C181.608 12.829 180.937 15.3707 180.937 18.136V27.408ZM224.749 44V1.544H227.128L256.774 30.336V1.544H259.031V44H256.774V33.508L227.006 4.472V44H224.749ZM269.904 44V1.544H272.283L301.929 30.336V1.544H304.186V44H301.929V33.508L272.161 4.472V44H269.904ZM317.01 1.544H346.9V3.801H319.267V21.003H343.301V23.26H319.267V41.743H346.9V44H317.01V1.544ZM362.225 27.774C362.225 30.458 362.896 32.9387 364.238 35.216C365.621 37.4933 367.451 39.303 369.728 40.645C372.046 41.987 374.547 42.658 377.231 42.658C379.997 42.658 382.498 42.109 384.734 41.011C386.971 39.913 388.72 38.388 389.98 36.436C391.282 34.484 391.953 32.288 391.993 29.848H394.189C394.189 32.654 393.437 35.216 391.932 37.534C390.468 39.8113 388.435 41.621 385.832 42.963C383.27 44.2643 380.403 44.915 377.231 44.915C374.141 44.915 371.274 44.1423 368.63 42.597C365.987 41.0517 363.893 38.9777 362.347 36.375C360.802 33.7317 360.029 30.8647 360.029 27.774V17.77C360.029 14.6793 360.782 11.8327 362.286 9.23C363.832 6.58666 365.906 4.49233 368.508 2.947C371.152 1.40166 374.019 0.628998 377.109 0.628998C380.241 0.628998 383.087 1.3 385.649 2.642C388.252 3.94333 390.306 5.753 391.81 8.071C393.315 10.3483 394.067 12.89 394.067 15.696H391.871C391.831 13.256 391.16 11.06 389.858 9.108C388.557 7.156 386.788 5.631 384.551 4.533C382.355 3.435 379.875 2.886 377.109 2.886C374.425 2.886 371.945 3.557 369.667 4.899C367.39 6.241 365.58 8.05066 364.238 10.328C362.896 12.6053 362.225 15.086 362.225 17.77V27.774ZM439.1 1.544V3.801H423.057V44H420.861V3.801H404.818V1.544H439.1Z" fill="black"/>
</svg>
