<svg width="254" height="29" viewBox="0 0 254 29" fill="none" xmlns="http://www.w3.org/2000/svg">
<path d="M3.72 28V6.424H11.749C13.3197 6.424 14.7663 6.81667 16.089 7.602C17.4323 8.38733 18.4967 9.45167 19.282 10.795C20.0673 12.1177 20.46 13.5643 20.46 15.135V19.289C20.46 20.8597 20.0673 22.3167 19.282 23.66C18.4967 24.9827 17.4323 26.0367 16.089 26.822C14.7663 27.6073 13.3197 28 11.749 28H3.72ZM26.9773 6.424H42.1673V7.571H28.1243V16.313H40.3383V17.46H28.1243V26.853H42.1673V28H26.9773V6.424ZM49.0875 6.424L57.3335 26.481L65.5795 6.424H66.7885L57.9225 28H56.7135L47.8475 6.424H49.0875ZM89.2088 19.847C89.2295 22.5543 88.4545 24.6727 86.8838 26.202C85.3131 27.7107 83.1535 28.465 80.4048 28.465C78.7721 28.465 77.2635 28.093 75.8788 27.349C74.5148 26.605 73.4298 25.551 72.6238 24.187C71.8178 22.823 71.4148 21.2523 71.4148 19.475V14.949C71.4148 13.1923 71.7971 11.632 72.5618 10.268C73.3471 8.904 74.4115 7.85 75.7548 7.106C77.1188 6.34133 78.6378 5.959 80.3118 5.959C83.0605 5.959 85.2098 6.71333 86.7598 8.222C88.3305 9.71 89.1261 11.818 89.1468 14.546H83.5668C83.5461 13.492 83.2568 12.6757 82.6988 12.097C82.1615 11.5183 81.3658 11.229 80.3118 11.229C79.3611 11.229 78.5758 11.5287 77.9558 12.128C77.3358 12.7273 77.0258 13.5747 77.0258 14.67V19.723C77.0258 20.8183 77.3461 21.676 77.9868 22.296C78.6481 22.8953 79.4541 23.195 80.4048 23.195C82.5748 23.195 83.6598 22.079 83.6598 19.847H89.2088ZM103.259 5.959C104.871 5.959 106.359 6.362 107.723 7.168C109.087 7.95333 110.162 9.028 110.947 10.392C111.753 11.756 112.156 13.244 112.156 14.856V19.568C112.156 21.18 111.753 22.668 110.947 24.032C110.162 25.396 109.087 26.481 107.723 27.287C106.359 28.0723 104.871 28.465 103.259 28.465C101.647 28.465 100.159 28.0723 98.7951 27.287C97.4311 26.481 96.3461 25.396 95.5401 24.032C94.7547 22.668 94.3621 21.18 94.3621 19.568V14.856C94.3621 13.244 94.7547 11.756 95.5401 10.392C96.3461 9.028 97.4311 7.95333 98.7951 7.168C100.159 6.362 101.647 5.959 103.259 5.959ZM95.5091 19.568C95.5091 20.9733 95.8501 22.2753 96.5321 23.474C97.2347 24.652 98.1751 25.5923 99.3531 26.295C100.552 26.977 101.854 27.318 103.259 27.318C104.664 27.318 105.956 26.977 107.134 26.295C108.333 25.5923 109.273 24.652 109.955 23.474C110.658 22.2753 111.009 20.9733 111.009 19.568V14.856C111.009 13.4507 110.658 12.159 109.955 10.981C109.273 9.78233 108.333 8.842 107.134 8.16C105.956 7.45733 104.664 7.106 103.259 7.106C101.854 7.106 100.552 7.45733 99.3531 8.16C98.1751 8.842 97.2347 9.78233 96.5321 10.981C95.8501 12.159 95.5091 13.4507 95.5091 14.856V19.568ZM117.774 28V6.424H118.983L134.049 21.056V6.424H135.196V28H134.049V22.668L118.921 7.912V28H117.774ZM140.722 28V6.424H141.931L156.997 21.056V6.424H158.144V28H156.997V22.668L141.869 7.912V28H140.722ZM164.661 6.424H179.851V7.571H165.808V16.313H178.022V17.46H165.808V26.853H179.851V28H164.661V6.424ZM187.639 19.754C187.639 21.118 187.98 22.3787 188.662 23.536C189.365 24.6933 190.295 25.613 191.452 26.295C192.63 26.977 193.901 27.318 195.265 27.318C196.67 27.318 197.941 27.039 199.078 26.481C200.215 25.923 201.103 25.148 201.744 24.156C202.405 23.164 202.746 22.048 202.767 20.808H203.883C203.883 22.234 203.501 23.536 202.736 24.714C201.992 25.8713 200.959 26.791 199.636 27.473C198.334 28.1343 196.877 28.465 195.265 28.465C193.694 28.465 192.237 28.0723 190.894 27.287C189.551 26.5017 188.486 25.4477 187.701 24.125C186.916 22.7817 186.523 21.3247 186.523 19.754V14.67C186.523 13.0993 186.905 11.6527 187.67 10.33C188.455 8.98667 189.509 7.92233 190.832 7.137C192.175 6.35167 193.632 5.959 195.203 5.959C196.794 5.959 198.241 6.3 199.543 6.982C200.866 7.64333 201.909 8.563 202.674 9.741C203.439 10.8983 203.821 12.19 203.821 13.616H202.705C202.684 12.376 202.343 11.26 201.682 10.268C201.021 9.276 200.122 8.501 198.985 7.943C197.869 7.385 196.608 7.106 195.203 7.106C193.839 7.106 192.578 7.447 191.421 8.129C190.264 8.811 189.344 9.73067 188.662 10.888C187.98 12.0453 187.639 13.306 187.639 14.67V19.754ZM226.706 6.424V7.571H218.553V28H217.437V7.571H209.284V6.424H226.706Z" fill="black"/>
</svg>
